<svg xmlns="http://www.w3.org/2000/svg" width="37.754" height="37.754" viewBox="0 0 37.754 37.754">
  <g id="img" opacity="0.24">
    <path id="Path_6" data-name="Path 6" d="M0,0H37.754V37.754H0Z" fill="none"/>
    <path id="Path_7" data-name="Path 7" d="M30.315,5.146V24.023H11.438V5.146H30.315m0-3.146H11.438A3.155,3.155,0,0,0,8.292,5.146V24.023a3.155,3.155,0,0,0,3.146,3.146H30.315a3.155,3.155,0,0,0,3.146-3.146V5.146A3.155,3.155,0,0,0,30.315,2ZM16.944,17.212,19.6,20.767l3.9-4.877,5.238,6.56H13.012ZM2,8.292V30.315a3.155,3.155,0,0,0,3.146,3.146H27.169V30.315H5.146V8.292Z" transform="translate(1.146 1.146)" fill="#545455"/>
  </g>
</svg>
