<svg xmlns="http://www.w3.org/2000/svg" width="92" height="33.001" viewBox="0 0 92 33.001">
  <path id="logo" d="M92,33H0V0H92V33ZM13.975,18.575,13,20.765a6.481,6.481,0,0,0,1.943.832,9.5,9.5,0,0,0,2.482.323,6.321,6.321,0,0,0,2.588-.465,3.594,3.594,0,0,0,1.545-1.237,2.985,2.985,0,0,0,.517-1.687,2.676,2.676,0,0,0-.323-1.373,2.61,2.61,0,0,0-.847-.885,4.887,4.887,0,0,0-1.163-.54c-.423-.135-.852-.248-1.275-.337-.4-.084-.791-.173-1.17-.263a2.911,2.911,0,0,1-.855-.33.623.623,0,0,1-.322-.547.758.758,0,0,1,.165-.48,1.135,1.135,0,0,1,.54-.337,3.154,3.154,0,0,1,.99-.128,5.389,5.389,0,0,1,1.426.2,7.15,7.15,0,0,1,1.485.607l.914-2.2a6.5,6.5,0,0,0-1.778-.682A8.915,8.915,0,0,0,17.83,11a6.323,6.323,0,0,0-2.58.465A3.6,3.6,0,0,0,13.7,12.7a3,3,0,0,0-.517,1.71,2.663,2.663,0,0,0,.33,1.387,2.7,2.7,0,0,0,.855.886,5.124,5.124,0,0,0,1.163.547,12.224,12.224,0,0,0,1.274.345c.42.089.811.18,1.163.27a2.975,2.975,0,0,1,.855.346.647.647,0,0,1,.33.57.635.635,0,0,1-.173.443,1.209,1.209,0,0,1-.547.3,3.575,3.575,0,0,1-.99.112,6.068,6.068,0,0,1-1.838-.293,6.924,6.924,0,0,1-1.627-.742h0ZM71.53,11.21h0v10.5H79.96V19.415H74.47V17.5h4.666v-2.22H74.47V13.505h5.3V11.21ZM58,11.21v10.5h2.94V19.079l1.1-1.18h0L65.05,21.71H68.5l-4.512-5.855,4.287-4.644h-3.27L60.94,15.573V11.21Zm-7.335,0h0v10.5h2.97V11.21ZM40.285,18.92h1.622l1.9,2.79h3.18l-2.268-3.3a3.592,3.592,0,0,0,1.488-1.264,3.64,3.64,0,0,0,.571-2.048,3.74,3.74,0,0,0-.571-2.077A3.649,3.649,0,0,0,44.6,11.675a6.1,6.1,0,0,0-2.483-.464h-4.8v10.5h2.97V18.921Zm-12.51-5.355V21.71h2.97V13.565h3.21V11.21h-9.4v2.354Zm14.16,3.06h-1.65V13.55h1.65a2.054,2.054,0,0,1,1.388.4,1.448,1.448,0,0,1,.457,1.139,1.43,1.43,0,0,1-.457,1.125A2.054,2.054,0,0,1,41.935,16.625Z" transform="translate(0 0)" fill="#fff"/>
</svg>
