<svg xmlns="http://www.w3.org/2000/svg" width="100%" height="100%" viewBox="0 0 115 30.68">
  <g id="Group_3" data-name="Group 3" transform="translate(-32 -27.5)">
    <path id="Path_2" data-name="Path 2" d="M1.152,0V-13.32h6.5a4.9,4.9,0,0,1,2.187.441,3.2,3.2,0,0,1,1.35,1.188,3.085,3.085,0,0,1,.459,1.647,3,3,0,0,1-.306,1.422,2.841,2.841,0,0,1-.774.936,2.668,2.668,0,0,1-.954.486v.162a3.733,3.733,0,0,1,1.107.468,3.237,3.237,0,0,1,1.044,1.035A3.121,3.121,0,0,1,12.2-3.8a3.946,3.946,0,0,1-.441,1.818A3.461,3.461,0,0,1,10.35-.558,5.108,5.108,0,0,1,7.794,0Zm5.9-10.728H4.266V-8.01h2.79a1.631,1.631,0,0,0,1.2-.387,1.329,1.329,0,0,0,.387-.981,1.307,1.307,0,0,0-.387-.963A1.631,1.631,0,0,0,7.056-10.728ZM7.29-5.67H4.266v3.078H7.29a1.819,1.819,0,0,0,1.35-.441,1.541,1.541,0,0,0,.432-1.125,1.465,1.465,0,0,0-.432-1.08A1.843,1.843,0,0,0,7.29-5.67ZM20.2.18a7.118,7.118,0,0,1-2.988-.585,6.216,6.216,0,0,1-2.133-1.566,6.742,6.742,0,0,1-1.287-2.205,7.466,7.466,0,0,1-.432-2.5,7.389,7.389,0,0,1,.432-2.493,6.661,6.661,0,0,1,1.287-2.187,6.272,6.272,0,0,1,2.133-1.557A7.118,7.118,0,0,1,20.2-13.5a7.071,7.071,0,0,1,2.97.585A6.272,6.272,0,0,1,25.3-11.358a6.661,6.661,0,0,1,1.287,2.187,7.389,7.389,0,0,1,.432,2.493,7.466,7.466,0,0,1-.432,2.5A6.742,6.742,0,0,1,25.3-1.971,6.216,6.216,0,0,1,23.166-.405,7.071,7.071,0,0,1,20.2.18Zm0-2.79A3.217,3.217,0,0,0,22.167-3.2a3.707,3.707,0,0,0,1.206-1.521,4.826,4.826,0,0,0,.4-1.953,4.783,4.783,0,0,0-.4-1.935,3.707,3.707,0,0,0-1.206-1.521,3.217,3.217,0,0,0-1.971-.594,3.247,3.247,0,0,0-1.989.594,3.639,3.639,0,0,0-1.2,1.521,4.876,4.876,0,0,0-.4,1.935,4.92,4.92,0,0,0,.4,1.953,3.639,3.639,0,0,0,1.2,1.521A3.247,3.247,0,0,0,20.2-2.61ZM30.96,0,27.72-13.32h3.1L33.03-4.014l2.322-9.306h3.2l2.322,9.306,2.214-9.306h3.1L42.948,0H38.9L36.954-7.9,35.01,0ZM47.772,0V-13.32h3.114V-2.7h6.408V0Zm11.7,0V-13.32h3.114V0ZM64.89,0V-13.32h2.862L73.08-5.382V-13.32h3.078V0h-2.88L67.986-7.632V0ZM84.744.18A7.167,7.167,0,0,1,81.774-.4a6.118,6.118,0,0,1-2.133-1.557,6.634,6.634,0,0,1-1.278-2.2,7.53,7.53,0,0,1-.423-2.493,7.466,7.466,0,0,1,.432-2.5,6.742,6.742,0,0,1,1.287-2.2,6.175,6.175,0,0,1,2.151-1.566,7.29,7.29,0,0,1,3.024-.585,7.08,7.08,0,0,1,2.34.342,5.322,5.322,0,0,1,1.629.882,5.37,5.37,0,0,1,1.062,1.143A5.924,5.924,0,0,1,90.477-10a5.043,5.043,0,0,1,.27.873l.063.342h-3.1l-.1-.3a2.575,2.575,0,0,0-.4-.693,2.494,2.494,0,0,0-.873-.693,3.306,3.306,0,0,0-1.512-.3,3.388,3.388,0,0,0-2.043.594,3.709,3.709,0,0,0-1.233,1.53A4.756,4.756,0,0,0,81.144-6.7a4.814,4.814,0,0,0,.423,1.989A3.87,3.87,0,0,0,82.818-3.15a3.357,3.357,0,0,0,2.052.612,3.143,3.143,0,0,0,2.061-.63,2.68,2.68,0,0,0,.945-1.674H84.582v-2.43h6.372V-6.21a7.1,7.1,0,0,1-.8,3.528A5.231,5.231,0,0,1,87.948-.54,6.922,6.922,0,0,1,84.744.18Z" transform="translate(56 58)" fill="#fff"/>
    <path id="Path_1" data-name="Path 1" d="M6.3.18a7.311,7.311,0,0,1-2.3-.315A4.941,4.941,0,0,1,2.439-.954a4.784,4.784,0,0,1-.99-1.062,4.672,4.672,0,0,1-.54-1.062A5.665,5.665,0,0,1,.684-3.9L.63-4.212H3.78l.072.279a1.987,1.987,0,0,0,.333.639,2.242,2.242,0,0,0,.792.639,3.1,3.1,0,0,0,1.431.279,2.36,2.36,0,0,0,1.611-.45,1.356,1.356,0,0,0,.495-1.026,1.019,1.019,0,0,0-.369-.828,2.723,2.723,0,0,0-1.2-.468L5.166-5.454a9.148,9.148,0,0,1-2.1-.63A3.946,3.946,0,0,1,1.485-7.308a3.3,3.3,0,0,1-.6-2.052A3.8,3.8,0,0,1,1.5-11.529a4.112,4.112,0,0,1,1.773-1.449A6.538,6.538,0,0,1,5.994-13.5a6.459,6.459,0,0,1,2.088.3,4.79,4.79,0,0,1,1.44.756,4.525,4.525,0,0,1,.927.972,4.485,4.485,0,0,1,.522.981,5.038,5.038,0,0,1,.225.756l.054.288H8.172l-.063-.225a1.65,1.65,0,0,0-.288-.522,1.966,1.966,0,0,0-.675-.531,2.676,2.676,0,0,0-1.224-.234,2.092,2.092,0,0,0-1.53.459,1.371,1.371,0,0,0-.45.963.923.923,0,0,0,.5.846,3.963,3.963,0,0,0,1.251.432l1.89.324a7.241,7.241,0,0,1,2.016.666,3.981,3.981,0,0,1,1.476,1.26,3.322,3.322,0,0,1,.558,1.962,3.916,3.916,0,0,1-.621,2.169A4.16,4.16,0,0,1,9.2-.369,6.881,6.881,0,0,1,6.3.18ZM16.542,0V-10.62h-4.05v-2.7H23.724v2.7h-4.05V0Zm9,0V-13.32h5.634a6.119,6.119,0,0,1,2.574.5,3.845,3.845,0,0,1,1.692,1.44,4.078,4.078,0,0,1,.594,2.232A4.012,4.012,0,0,1,35.4-6.858a3.932,3.932,0,0,1-1.791,1.44L36.36,0H32.922L30.456-4.986h-1.8V0Zm5.6-10.638H28.656v3.15H31.14a1.879,1.879,0,0,0,1.3-.432,1.445,1.445,0,0,0,.486-1.134,1.465,1.465,0,0,0-.486-1.152A1.879,1.879,0,0,0,31.14-10.638ZM44.28.18a7.118,7.118,0,0,1-2.988-.585,6.216,6.216,0,0,1-2.133-1.566,6.742,6.742,0,0,1-1.287-2.205,7.466,7.466,0,0,1-.432-2.5,7.389,7.389,0,0,1,.432-2.493,6.661,6.661,0,0,1,1.287-2.187,6.272,6.272,0,0,1,2.133-1.557A7.118,7.118,0,0,1,44.28-13.5a7.071,7.071,0,0,1,2.97.585,6.272,6.272,0,0,1,2.133,1.557A6.661,6.661,0,0,1,50.67-9.171,7.389,7.389,0,0,1,51.1-6.678a7.466,7.466,0,0,1-.432,2.5,6.742,6.742,0,0,1-1.287,2.205A6.216,6.216,0,0,1,47.25-.405,7.071,7.071,0,0,1,44.28.18Zm0-2.79A3.217,3.217,0,0,0,46.251-3.2a3.707,3.707,0,0,0,1.206-1.521,4.826,4.826,0,0,0,.4-1.953,4.783,4.783,0,0,0-.4-1.935,3.707,3.707,0,0,0-1.206-1.521,3.217,3.217,0,0,0-1.971-.594,3.247,3.247,0,0,0-1.989.594,3.639,3.639,0,0,0-1.2,1.521,4.876,4.876,0,0,0-.4,1.935,4.92,4.92,0,0,0,.4,1.953,3.639,3.639,0,0,0,1.2,1.521A3.247,3.247,0,0,0,44.28-2.61ZM58.41.18a7.1,7.1,0,0,1-2.052-.3,5.008,5.008,0,0,1-1.773-.945,4.5,4.5,0,0,1-1.242-1.692,6.241,6.241,0,0,1-.459-2.52V-13.32H56v8.046a2.771,2.771,0,0,0,.585,1.791,2.2,2.2,0,0,0,1.827.729,2.2,2.2,0,0,0,1.827-.729,2.771,2.771,0,0,0,.585-1.791V-13.32h3.114v8.046a6.241,6.241,0,0,1-.459,2.52,4.5,4.5,0,0,1-1.242,1.692,5.008,5.008,0,0,1-1.773.945A7.1,7.1,0,0,1,58.41.18ZM66.348,0V-13.32h5.274a6.872,6.872,0,0,1,2.88.567,5.9,5.9,0,0,1,2.061,1.521A6.588,6.588,0,0,1,77.8-9.09a7.334,7.334,0,0,1,.414,2.43A7.334,7.334,0,0,1,77.8-4.23a6.588,6.588,0,0,1-1.233,2.142A5.9,5.9,0,0,1,74.5-.567,6.872,6.872,0,0,1,71.622,0Zm5.13-10.584H69.462v7.812h2.016a3.414,3.414,0,0,0,2.043-.576A3.426,3.426,0,0,0,74.7-4.815,4.767,4.767,0,0,0,75.078-6.7,4.744,4.744,0,0,0,74.7-8.55a3.357,3.357,0,0,0-1.179-1.467A3.453,3.453,0,0,0,71.478-10.584Z" transform="translate(32 41)" fill="#fff"/>
    <rect id="Rectangle_3" data-name="Rectangle 3" width="23" height="3" transform="translate(32 45)" fill="#fff"/>
    <rect id="Rectangle_5" data-name="Rectangle 5" width="14" height="3" transform="translate(41 52)" fill="#fff"/>
    <rect id="Rectangle_4" data-name="Rectangle 4" width="34" height="3" transform="translate(113 38)" fill="#fff"/>
    <rect id="Rectangle_6" data-name="Rectangle 6" width="18" height="3" transform="translate(113 31)" fill="#fff"/>
  </g>
</svg>
